<svg width="25" height="24" viewBox="0 0 25 24" fill="none" xmlns="http://www.w3.org/2000/svg">
<path d="M20.9001 3.60001C20.9001 2.86441 20.4585 2.35681 19.8873 2.03641C19.3377 1.72801 18.6033 1.54681 17.8017 1.43161C16.1961 1.20001 14.0637 1.20001 11.9385 1.20001H11.9001C11.741 1.20001 11.5884 1.26323 11.4758 1.37575C11.3633 1.48827 11.3001 1.64088 11.3001 1.80001C11.3001 1.95914 11.3633 2.11175 11.4758 2.22428C11.5884 2.3368 11.741 2.40001 11.9001 2.40001C14.0709 2.40001 16.1205 2.40121 17.6301 2.61841C18.3901 2.72961 18.9465 2.88441 19.2993 3.08281C19.6305 3.26881 19.7001 3.43561 19.7001 3.60001C19.7001 3.78001 19.6257 3.94561 19.3233 4.12441C18.9961 4.31961 18.4789 4.47201 17.7717 4.58161C16.3641 4.79761 14.4669 4.80001 12.5001 4.80001H12.4617C10.5405 4.80001 8.5545 4.80001 7.0461 5.03161C6.2913 5.14801 5.5905 5.33161 5.0637 5.64361C4.5117 5.97121 4.1001 6.47881 4.1001 7.20001C4.1001 8.15041 4.8753 8.72041 5.6865 9.03001C6.5313 9.35161 7.6629 9.50161 8.9001 9.50161V8.30161C7.7361 8.30161 6.7689 8.15761 6.1137 7.90801C5.4249 7.64641 5.3001 7.36561 5.3001 7.20001C5.3001 7.02001 5.3757 6.85441 5.6769 6.67561C6.0041 6.48041 6.5213 6.32801 7.2285 6.21841C8.6361 6.00241 10.5333 6.00001 12.5001 6.00001H12.5385C14.4597 6.00001 16.4457 6.00001 17.9541 5.76841C18.7089 5.65201 19.4097 5.46841 19.9365 5.15641C20.4885 4.82881 20.9001 4.32121 20.9001 3.60001ZM11.3001 8.99881C11.3001 8.83968 11.3633 8.68707 11.4758 8.57455C11.5884 8.46203 11.741 8.39881 11.9001 8.39881C12.0592 8.39881 12.2118 8.46203 12.3244 8.57455C12.4369 8.68707 12.5001 8.83968 12.5001 8.99881V12C12.5001 12.1383 12.5478 12.2724 12.6353 12.3796C12.7228 12.4867 12.8446 12.5603 12.9801 12.588L16.4553 13.29C16.6937 13.3382 16.9199 13.4343 17.1202 13.5723C17.3205 13.7104 17.4907 13.8876 17.6206 14.0933C17.7505 14.299 17.8373 14.5289 17.8759 14.7691C17.9144 15.0093 17.9039 15.2548 17.8449 15.4908L16.8477 19.4844C16.82 19.5955 16.7611 19.6963 16.678 19.7749C16.5948 19.8536 16.4909 19.9069 16.3785 19.9284L13.9785 20.3904C13.8057 20.424 13.6065 20.3808 13.3977 20.2392C13.1757 20.0842 12.9979 19.8741 12.8817 19.6296C12.5201 18.8577 11.9192 18.2231 11.1681 17.82L6.5397 15.072C6.6599 14.8015 6.88192 14.5894 7.15756 14.4815C7.43321 14.3737 7.74026 14.3789 8.0121 14.496L10.4625 15.552C10.5539 15.5914 10.6536 15.6075 10.7527 15.5988C10.8518 15.59 10.9472 15.5568 11.0303 15.5021C11.1133 15.4473 11.1815 15.3728 11.2286 15.2851C11.2757 15.1975 11.3003 15.0995 11.3001 15V8.99881ZM11.9001 7.19881C11.4227 7.19881 10.9649 7.38845 10.6273 7.72602C10.2897 8.06359 10.1001 8.52142 10.1001 8.99881V14.0892L8.4861 13.3932C8.18666 13.2643 7.86347 13.1999 7.5375 13.2041C7.21154 13.2082 6.8901 13.2809 6.59405 13.4174C6.29801 13.5539 6.03398 13.7511 5.81912 13.9962C5.60426 14.2414 5.44337 14.529 5.3469 14.8404C5.27823 15.0618 5.28612 15.2999 5.36928 15.5163C5.45243 15.7327 5.60603 15.9148 5.8053 16.0332L10.5669 18.8592L10.5909 18.8712C11.2173 19.2072 11.5821 19.6908 11.7981 20.1456C12.0009 20.5692 12.3249 20.9628 12.7269 21.234C13.1313 21.5076 13.6485 21.6756 14.2041 21.5688L16.6053 21.1068C16.9423 21.042 17.2538 20.8821 17.503 20.6461C17.7521 20.4101 17.9286 20.1078 18.0117 19.7748L19.0089 15.7824C19.1073 15.389 19.1249 14.9798 19.0607 14.5794C18.9965 14.1791 18.8517 13.7959 18.6353 13.453C18.4188 13.1101 18.1351 12.8147 17.8012 12.5846C17.4674 12.3544 17.0903 12.1943 16.6929 12.114L13.7001 11.5092V8.99881C13.7001 8.52142 13.5105 8.06359 13.1729 7.72602C12.8353 7.38845 12.3775 7.19881 11.9001 7.19881Z" fill="#A440F1"/>
</svg>
