<svg width="21" height="21" viewBox="0 0 21 21" fill="none" xmlns="http://www.w3.org/2000/svg">
<path fill-rule="evenodd" clip-rule="evenodd" d="M11.9972 0.789144C11.2523 0.0442431 10.0446 0.0442444 9.29968 0.789144L7.4881 2.60073H4.92611C3.87266 2.60073 3.01868 3.45471 3.01868 4.50816V7.07014L1.20711 8.88171C0.462213 9.62661 0.462212 10.8343 1.20711 11.5792L3.01868 13.3908V15.9528C3.01868 17.0062 3.87266 17.8602 4.92611 17.8602H7.4881L9.29968 19.6718C10.0446 20.4167 11.2523 20.4167 11.9972 19.6718L13.8088 17.8602H16.3707C17.4242 17.8602 18.2782 17.0062 18.2782 15.9528V13.3908L20.0898 11.5792C20.8347 10.8343 20.8347 9.62661 20.0898 8.88171L18.2782 7.07011V4.50816C18.2782 3.45471 17.4242 2.60073 16.3707 2.60073L13.8088 2.60073L11.9972 0.789144ZM14.9341 8.70144C15.3065 8.32899 15.3065 7.72513 14.9341 7.35268C14.5616 6.98023 13.9578 6.98023 13.5853 7.35268L9.53724 11.4008L7.85129 9.71482C7.47884 9.34237 6.87498 9.34237 6.50253 9.71482C6.13008 10.0873 6.13008 10.6911 6.50253 11.0636L8.79543 13.3565C9.20512 13.7662 9.86937 13.7662 10.2791 13.3565L14.9341 8.70144Z" fill="#A440F1"/>
</svg>
